<svg xmlns="http://www.w3.org/2000/svg" fill="none" viewBox="-0.5 -0.5 200 200" height="200" width="200"><g id="Finances-Investing-01"><g id="color 2"><path id="Vector" fill="#0094f8" d="M168.735085 71.587265s-12.587745 9.280365 -17.974675 17.956765a41.544235 41.544235 0 0 1 -6.97495 -10.20671c-5.95408 -12.153925 -13.495185000000001 -12.338000000000001 -16.822465 -13.326035000000001 -2.13527 2.6865 -6.16104 5.216785000000001 -9.73309 6.766a155.78516000000002 155.78516000000002 0 0 0 -4.68844 28.597295 8.993805 8.993805 0 0 0 1.115395 5.027735l16.255315 28.656a31.614135 31.614135 0 0 0 10.868385 -5.443645c-3.9998999999999993 -11.262405000000001 -7.3291699999999995 -21.680055000000003 -13.505135000000001 -28.973405 1.23181 -2.392975 2.9392300000000002 -5.52623 4.962065 -9.755975 2.66461 4.4775 7.1441 8.922165 12.701175000000001 13.08027a8.798785 8.798785 0 0 0 11.851445 -1.228825l20.58257 -23.248175a32.26188 32.26188 0 0 0 -8.637595 -7.901295Z" stroke-width="1"></path><path id="Vector_2" fill="#0094f8" d="M47.276430000000005 77.14434a8.54307 8.54307 0 1 1 -17.08614 0.00199 8.54307 8.54307 0 0 1 17.08614 -0.00199Z" stroke-width="1"></path><path id="Vector_3" fill="#0094f8" d="m65.64810999999999 41.572095 8.92117 -3.19395 -9.677370000000002 -18.825400000000002 -18.693065 6.691375 2.1442249999999996 10.002735000000001 -13.466330000000001 -4.73023 -0.888535 2.098455 15.49812 7.96L50.6455 46.964000000000006l1.47459 -0.5283450000000001c-0.47262499999999996 -0.51143 0.263675 -0.86963 2.4377500000000003 -0.888535l9.790799999999999 -3.4974250000000002c-0.383075 -1.1203699999999999 -0.47759999999999997 -1.9701 1.2994700000000001 -0.47759999999999997Z" stroke-width="1"></path><path id="Subtract" fill="#0094f8" fill-rule="evenodd" d="M60.81241 102.277045a20.111935000000003 20.111935000000003 0 0 0 6.460535 -9.009725c0.476605 -1.6755799999999998 0.731325 -3.397925 0.76615 -5.123255a11.05047 11.05047 0 0 1 2.201935 -0.43382 11.05644 11.05644 0 0 1 12.020595 9.979849999999999 11.0445 11.0445 0 0 1 -21.449215 4.58695Zm-0.057710000000000004 -0.17213499999999998a20.169645 20.169645 0 0 1 -0.44775 -2.010895 11.05445 11.05445 0 0 0 0.44775 2.010895Z" clip-rule="evenodd" stroke-width="1"></path></g><g id="color 1"><path id="Vector_4" fill="#00395f" d="M50.2475 163.86356500000002a15.3628 15.3628 0 0 0 -6.21875 -5.613790000000001 13.668315 13.668315 0 0 0 7.995819999999999 13.797665 15.196634999999999 15.196634999999999 0 0 0 -1.77707 -8.183875Z" stroke-width="1"></path><path id="Vector_5" fill="#00395f" d="M67.272945 93.26732a20.11492 20.11492 0 0 1 -6.4675 9.015695 20.17462 20.17462 0 0 1 -0.010945 -11.095245 20.09303 20.09303 0 0 1 6.4675 -9.015695 20.22835 20.22835 0 0 1 0.010945 11.095245Z" stroke-width="1"></path><path id="Vector_6" fill="#00395f" d="M34.290685 66.40829000000001a9.09828 9.09828 0 0 1 -2.343225 -4.384965 9.019675 9.019675 0 0 1 4.460585 2.189 9.11022 9.11022 0 0 1 2.343225 4.384965 9.017685 9.017685 0 0 1 -4.460585 -2.189Z" stroke-width="1"></path><path id="Vector_7" fill="#00395f" d="M46.7849 125.6685a53.963825 53.963825 0 0 1 -7.6366249999999996 -7.200815 22.19248 22.19248 0 0 0 -0.775105 7.805775 24.983455000000003 24.983455000000003 0 0 0 5.3869299999999996 12.645455 25.039175 25.039175 0 0 0 3.0248 -13.250415Z" stroke-width="1"></path><path id="Vector_8" fill="#00395f" d="M107.26896 47.148075c0.11243500000000001 0.9263450000000001 0.868635 1.43678 2.570085 1.73926 0.26566500000000004 -0.5671499999999999 0.51143 -1.1342999999999999 0.737295 -1.70145 -1.66364 0.510435 -3.099425 0.6994849999999999 -3.3073799999999998 -0.037809999999999996Z" stroke-width="1"></path><path id="Vector_9" fill="#00395f" d="M121.860635 47.223695s2.92928 -5.10236 -1.644735 -7.843585c-8.80774 -5.273499999999999 -10.736049999999999 1.039775 -10.736049999999999 1.039775 0.48755 -0.059699999999999996 0.9830599999999999 -0.0199 1.4556850000000001 0.11343 -0.359195 0.982065 -0.398 2.3243199999999997 0.207955 1.64374 1.077585 -1.17211 2.229795 0.586055 0.15123999999999999 2.0228349999999997a37.79607 37.79607 0 0 0 6.879429999999999 16.028455 8.763959999999999 8.763959999999999 0 0 0 9.0346 3.6287649999999996 6.7888850000000005 6.7888850000000005 0 0 0 5.1978800000000005 -4.179c3.648665 -9.3729 -10.546005000000001 -12.454415 -10.546005000000001 -12.454415Z" stroke-width="1"></path><path id="Vector_10" fill="#00395f" d="M106.51276 62.666095c-0.540285 0.4378 -1.103455 0.846745 -1.68553 1.2268350000000001 0 0 1.96811 1.8904999999999998 4.65262 3.98995l-2.9670900000000002 -5.216785000000001Z" stroke-width="1"></path><path id="Vector_11" fill="#00395f" d="M143.06707 136.8722c-1.435785 -2.05965 -2.2885 -3.1551449999999996 -2.985 -4.250640000000001a34.997135 34.997135 0 0 0 -6.75207 3.81682l1.05868 1.8705999999999998c1.9472150000000001 10.225615 3.817815 14.04343 6.71028 18.579635 1.70344 -4.32825 2.6297849999999996 -16.236410000000003 1.96811 -20.016415000000002Z" stroke-width="1"></path><path id="Vector_12" fill="#00395f" d="M174.4434 67.39135c-1.47459 2.0228349999999997 -2.2685999999999997 3.175045 -3.0616149999999998 4.179a35.465779999999995 35.465779999999995 0 0 0 5.764035 5.174l1.47459 -1.60593C187.65699999999998 69.981335 190.67981 66.97543999999999 194.025 62.7845c-4.649635 -0.21293 -16.218500000000002 2.7551550000000002 -19.581599999999998 4.60685Z" stroke-width="1"></path></g><g id="outlines"><path id="Vector_13" stroke="#005792" stroke-linecap="round" stroke-linejoin="round" d="M82.82877500000001 27.13166a53.73 53.73 0 0 1 29.391305000000003 11.284294999999998" stroke-width="1"></path><path id="Vector_14" stroke="#005792" stroke-linecap="round" stroke-linejoin="round" d="M120.839765 119.048765a54.589679999999994 54.589679999999994 0 0 1 -71.274835 8.63262 54.578735 54.578735 0 0 1 -23.884974999999997 -44.226755A54.585699999999996 54.585699999999996 0 0 1 46.078450000000004 39.982085" stroke-width="1"></path><path id="Vector_15" stroke="#005792" stroke-linecap="round" stroke-linejoin="round" d="M133.786705 93.1917a54.451375 54.451375 0 0 1 -3.6287649999999996 11.473345" stroke-width="1"></path><path id="Vector_16" stroke="#005792" stroke-linecap="round" stroke-linejoin="round" d="M130.85742499999998 62.061135a54.49814 54.49814 0 0 1 1.9273150000000001 5.613790000000001" stroke-width="1"></path><path id="Vector_17" stroke="#005792" stroke-linecap="round" stroke-linejoin="round" d="M88.480375 61.248219999999996c12.853409999999998 -10.149 18.78759 -11.264395 21.89 -9.29927 2.6765499999999998 1.69747 4.470535 5.236685 6.299345000000001 6.0237300000000005" stroke-width="1"></path><path id="Vector_18" stroke="#005792" stroke-linecap="round" stroke-linejoin="round" d="M124.7332 64.04616c0.71043 0.6925199999999999 1.4616550000000001 1.34325 2.2487 1.94622" stroke-width="1"></path><path id="Vector_19" stroke="#005792" stroke-linecap="round" stroke-linejoin="round" d="M109.47985 40.419885s1.92831 -6.315265 10.736049999999999 -1.039775c4.577 2.7392350000000003 1.644735 7.843585 1.644735 7.843585s14.18074 3.075545 10.546999999999999 12.456405a6.784905 6.784905 0 0 1 -5.1978800000000005 4.179 8.75799 8.75799 0 0 1 -9.0346 -3.6287649999999996 37.838855 37.838855 0 0 1 -6.879429999999999 -16.028455c2.078555 -1.43678 0.9154 -3.2039 -0.15123999999999999 -2.0228349999999997 -0.61093 0.675605 -0.5671499999999999 -0.66068 -0.207955 -1.64374a3.742195 3.742195 0 0 0 -1.45668 -0.11542000000000001v0Z" stroke-width="1"></path><path id="Vector_20" stroke="#005792" stroke-linecap="round" stroke-linejoin="round" d="M109.839045 48.887335c-4.006865 -0.71839 -2.76013 -2.5710800000000003 -0.359195 -8.46745" stroke-width="1"></path><path id="Vector_21" stroke="#005792" stroke-linecap="round" stroke-linejoin="round" d="M108.61022000000001 51.268370000000004a27.498815 27.498815 0 0 0 1.9472150000000001 -4.0794999999999995c-1.66364 0.510435 -3.10042 0.6965 -3.3083750000000003 -0.056715" stroke-width="1"></path><path id="Vector_22" stroke="#005792" stroke-linecap="round" stroke-linejoin="round" d="M101.092 52.8942c-6.0695 -3.2128550000000002 -22.341730000000002 -15.064300000000001 -22.341730000000002 -15.064300000000001 1.039775 -3.855625 2.985 -6.653565 5.91627 -8.297305 0 0 14.402625 10.47138 23.11584 15.083205000000001" stroke-width="1"></path><path id="Vector_23" stroke="#005792" stroke-linecap="round" stroke-linejoin="round" d="M132.25539999999998 90.866385c2.665605 4.4775 7.1441 8.92316 12.70217 13.08027a8.798785 8.798785 0 0 0 11.85045 -1.228825l20.56466 -23.22927a33.255885 33.255885 0 0 0 -8.637595 -7.9202s-16.72794 12.324069999999999 -19.883085 21.8502" stroke-width="1"></path><path id="Vector_24" stroke="#005792" stroke-linecap="round" stroke-linejoin="round" d="M127.265475 100.75170999999999c6.199845 7.296335 9.50822 17.55976 13.515085000000001 28.844055a31.614135 31.614135 0 0 1 -10.868385 5.443645l-16.255315 -28.636100000000003a8.98485 8.98485 0 0 1 -1.115395 -5.027735c0.6696350000000001 -9.66344 2.23875 -19.2433 4.687445 -28.616200000000003 3.573045 -1.55021 7.598814999999999 -4.0794999999999995 9.734085 -6.766 3.32728 0.9830599999999999 10.868385 1.17211 16.822465 13.326035000000001a41.5114 41.5114 0 0 0 6.965 10.197755" stroke-width="1"></path><path id="Vector_25" stroke="#005792" stroke-linecap="round" stroke-linejoin="round" d="M125.94312 103.43622c1.03878 -2.4198399999999998 3.5402099999999996 -6.80182 5.6715 -11.189770000000001 7.10629 -14.639434999999999 2.985 -17.785625 1.791 -19.298025" stroke-width="1"></path><path id="Vector_26" stroke="#005792" stroke-linecap="round" stroke-linejoin="round" d="M104.82723 63.89293a20.368645 20.368645 0 0 0 1.68553 -1.2268350000000001l2.9670900000000002 5.216785000000001" stroke-width="1"></path><path id="Vector_27" stroke="#005792" stroke-linecap="round" stroke-linejoin="round" d="M117.247815 72.759375c-3.95214 -1.644735 -9.310215 -5.88244 -12.420585 -8.866444999999999a103.8979 103.8979 0 0 1 -10.241534999999999 6.1690000000000005c-4.441680000000001 2.1163649999999996 -6.97097 0.6965 -11.624585 -2.627795 -5.38295 -3.84269 -13.079274999999999 -9.412700000000001 -13.079274999999999 -9.412700000000001a12.59272 12.59272 0 0 1 6.4675 -9.412700000000001A2369.37559 2369.37559 0 0 1 91.54 58.867185" stroke-width="1"></path><path id="Vector_28" stroke="#005792" stroke-linecap="round" stroke-linejoin="round" d="M75.646865 29.078875c1.194 1.1711150000000001 2.6666000000000003 -0.247755 1.587025 -1.4556850000000001a92.25241999999999 92.25241999999999 0 0 0 -2.4755599999999998 -2.6268000000000002 1.14425 1.14425 0 0 0 -1.7959749999999999 1.41688c0.520385 0.631825 1.58802 1.58802 2.68451 2.665605Z" stroke-width="1"></path><path id="Vector_29" stroke="#005792" stroke-linecap="round" stroke-linejoin="round" d="M79.6 23.200415c-0.398 -0.47262499999999996 -0.6965 -0.8168949999999999 -1.077585 -1.266635a1.1362899999999998 1.1362899999999998 0 0 0 -1.8327900000000001 1.342255c0.41591 0.540285 0.86565 1.0547 1.3472300000000001 1.53628" stroke-width="1"></path><path id="Vector_30" stroke="#005792" stroke-linecap="round" stroke-linejoin="round" d="M77.99009000000001 24.864055c-0.41591 -0.45372 -1.3999650000000001 -1.45469 -1.813885 -1.909405a1.1542 1.1542 0 0 0 -1.833785 1.3989699999999998c0.506455 0.645755 1.74523 1.845725 2.8347550000000004 2.9670900000000002 0.91341 0.940275 1.92831 -0.037809999999999996 1.833785 -0.9263450000000001" stroke-width="1"></path><path id="Vector_31" stroke="#005792" stroke-linecap="round" stroke-linejoin="round" d="M72.62206499999999 29.305735s-0.37611 2.95913 6.53118 7.202805" stroke-width="1"></path><path id="Vector_32" stroke="#005792" stroke-linecap="round" stroke-linejoin="round" d="M67.1625 24.448145c1.8705999999999998 -3.36509 6.2247200000000005 -6.68839 10.092285 -4.55511a4.663565 4.663565 0 0 1 2.30641 3.326285" stroke-width="1"></path><path id="Vector_33" stroke="#005792" stroke-linecap="round" stroke-linejoin="round" d="m49.468415 41.534285000000004 -15.48021 -7.919205 0.888535 -2.098455 13.457375 4.7063500000000005" stroke-width="1"></path><path id="Vector_34" stroke="#005792" stroke-linecap="round" stroke-linejoin="round" d="m54.552865 45.542145 9.773885 -3.4914549999999998" stroke-width="1"></path><path id="Vector_35" stroke="#005792" stroke-linecap="round" stroke-linejoin="round" d="m65.64810999999999 41.572095 8.92117 -3.175045 -9.677370000000002 -18.844305 -18.71197 6.69038 4.460585 20.696994999999998 1.4556850000000001 -0.510435" stroke-width="1"></path><path id="Vector_36" stroke="#005792" stroke-linecap="round" stroke-linejoin="round" d="m4.975 62.60938 3.2506649999999997 -6.8227150000000005 10.509189999999998 -3.4974250000000002 3.4974250000000002 -11.26539" stroke-width="1"></path><path id="Vector_37" stroke="#005792" stroke-linecap="round" stroke-linejoin="round" d="m18.30004 43.33026 3.951145 -2.36213 1.98403 4.1392" stroke-width="1"></path><path id="Vector_38" stroke="#005792" stroke-linecap="round" stroke-linejoin="round" d="m132.123065 134.377735 2.2685999999999997 3.931245c1.9472150000000001 10.225615 3.817815 14.04343 6.71028 18.579635 1.700455 -4.309345 2.6268000000000002 -16.236410000000003 1.965125 -20.016415000000002a70.0878 70.0878 0 0 1 -4.0794999999999995 -6.029699999999999" stroke-width="1"></path><path id="Vector_39" stroke="#005792" stroke-linecap="round" stroke-linejoin="round" d="M140.077095 132.62156000000002a34.929475 34.929475 0 0 0 -6.758039999999999 3.827765" stroke-width="1"></path><path id="Vector_40" stroke="#005792" stroke-linecap="round" stroke-linejoin="round" d="m174.348875 76.02894500000001 -10.565904999999999 10.88729" stroke-width="1"></path><path id="Vector_41" stroke="#005792" stroke-linecap="round" stroke-linejoin="round" d="M171.343975 71.56836a35.775225 35.775225 0 0 0 5.801845 5.174" stroke-width="1"></path><path id="Vector_42" stroke="#005792" stroke-linecap="round" stroke-linejoin="round" d="m176.08813500000002 77.91944500000001 2.494465 -2.77804c9.0346 -5.141165 12.059399999999998 -8.14706 15.404589999999999 -12.342975 -4.649635 -0.207955 -16.218500000000002 2.76013 -19.581599999999998 4.611825a61.090015 61.090015 0 0 1 -4.006865 5.292405" stroke-width="1"></path><path id="Vector_43" stroke="#005792" stroke-linecap="round" stroke-linejoin="round" d="m135.46129 132.91807 -8.76197 -16.76177" stroke-width="1"></path><path id="Vector_44" stroke="#005792" stroke-linecap="round" stroke-linejoin="round" d="M70.16541 56.6155a55.572739999999996 55.572739999999996 0 0 0 -8.089350000000001 -6.028705 34.879725 34.879725 0 0 0 -7.258525 -2.985c-3.702395 -1.0477349999999999 -3.98796 -2.114375 0.207955 -2.05965 4.4576 0.35819999999999996 8.845550000000001 1.3243449999999999 13.041464999999999 2.872565" stroke-width="1"></path><path id="Vector_45" stroke="#005792" stroke-linecap="round" stroke-linejoin="round" d="M65.856065 47.6207c2.17308 0.094525 -0.872615 -3.81682 -1.3044449999999999 -4.952115 -0.58904 -1.5482200000000002 -1.16614 -3.294445 2.136265 -0.132335a89.42463 89.42463 0 0 0 8.633614999999999 6.691375" stroke-width="1"></path><path id="Vector_46" stroke="#005792" stroke-linecap="round" stroke-linejoin="round" d="M58.200535 48.755c-0.964155 -0.018904999999999998 -2.9670900000000002 0.0796 -3.553145 0.11343 -2.663615 0.152235 -2.43974 0.87361 -2.0228349999999997 0.9830599999999999 1.640755 0.43083499999999997 4.3650649999999995 0.796 5.8784600000000005 1.22783 2.43576 0.69053 7.20181 1.871595 8.902265 3.28947" stroke-width="1"></path><path id="Vector_47" stroke="#005792" stroke-linecap="round" stroke-linejoin="round" d="M58.321925 51.02957c-0.43979 0.09154 -0.787045 0.16517 -0.995 0.219895 -2.607895 0.5671499999999999 -2.267605 1.268625 -1.8327900000000001 1.3044449999999999 1.700455 0.14029499999999998 4.441680000000001 0.07263499999999999 6.010795000000001 0.24576499999999998 1.893485 0.253725 3.75911 0.68456 5.572 1.2855400000000001" stroke-width="1"></path><path id="Vector_48" stroke="#005792" stroke-linecap="round" stroke-linejoin="round" d="M47.276430000000005 77.14434a8.544065 8.544065 0 1 1 -17.08813 0.00199 8.544065 8.544065 0 0 1 17.08813 -0.00199v0Z" stroke-width="1"></path><path id="Vector_49" stroke="#005792" stroke-linecap="round" stroke-linejoin="round" d="M68.10377 88.12416499999999a11.04251 11.04251 0 0 1 2.13726 -0.41391999999999995 11.057435 11.057435 0 0 1 12.020595 9.979849999999999 11.0445 11.0445 0 0 1 -21.447225 4.591925" stroke-width="1"></path><path id="Vector_50" stroke="#005792" stroke-linecap="round" stroke-linejoin="round" d="M33.024049999999995 130.314155a24.916790000000002 24.916790000000002 0 0 1 10.679335 8.6565 25.019275 25.019275 0 0 1 -13.722045 -0.796 24.929725 24.929725 0 0 1 -10.679335 -8.6565 25.01032 25.01032 0 0 1 13.722045 0.796Z" stroke-width="1"></path><path id="Vector_51" stroke="#005792" stroke-linecap="round" stroke-linejoin="round" d="M50.2475 163.86356500000002a15.14191 15.14191 0 0 1 1.77707 8.183875 13.6713 13.6713 0 0 1 -7.995819999999999 -13.797665 15.308075 15.308075 0 0 1 6.21875 5.613790000000001Z" stroke-width="1"></path><path id="Vector_52" stroke="#005792" stroke-linecap="round" stroke-linejoin="round" d="M83.11235 103.92775a20.02736 20.02736 0 0 1 -9.56394 5.5948850000000006 18.064225 18.064225 0 0 1 14.062335 -15.721 20.235315 20.235315 0 0 1 -4.4983949999999995 10.126115v0Z" stroke-width="1"></path><path id="Vector_53" stroke="#005792" stroke-linecap="round" stroke-linejoin="round" d="M67.272945 93.26732a20.11492 20.11492 0 0 1 -6.4675 9.015695 20.17462 20.17462 0 0 1 -0.010945 -11.095245 20.09303 20.09303 0 0 1 6.4675 -9.015695 20.22636 20.22636 0 0 1 0.010945 11.095245Z" stroke-width="1"></path><path id="Vector_54" stroke="#005792" stroke-linecap="round" stroke-linejoin="round" d="M34.290685 66.40829000000001a9.099274999999999 9.099274999999999 0 0 1 -2.343225 -4.384965 9.01868 9.01868 0 0 1 4.460585 2.189 9.109224999999999 9.109224999999999 0 0 1 2.343225 4.384965 9.017685 9.017685 0 0 1 -4.460585 -2.189v0Z" stroke-width="1"></path><path id="Vector_55" stroke="#005792" stroke-linecap="round" stroke-linejoin="round" d="M39.90547 85.60781c0.641775 10.614659999999999 1.3273300000000001 17.666224999999997 12.605655 35.1036 10.066415000000001 15.57175 -0.9094300000000001 30.000245 -0.6358050000000001 48.00477" stroke-width="1"></path><path id="Vector_56" stroke="#005792" stroke-linecap="round" stroke-linejoin="round" d="M65.64810999999999 108.256s-8.711225 8.711225 -8.955 24.775499999999997" stroke-width="1"></path><path id="Vector_57" stroke="#005792" stroke-linecap="round" stroke-linejoin="round" d="M43.760099999999994 138.91394s9.734085 5.651599999999999 8.675405 21.60344" stroke-width="1"></path><path id="Vector_58" stroke="#005792" stroke-linecap="round" stroke-linejoin="round" d="M65.34563 171.29124a2.4685949999999997 2.4685949999999997 0 0 0 -3.0248 -1.7382650000000002l-20.185565 5.40484a2.4656100000000003 2.4656100000000003 0 0 0 -1.3134000000000001 3.887465 2.45964 2.45964 0 0 0 1.63777 0.9412699999999999c0.32138500000000003 0.04179 0.64675 0.0199 0.960175 -0.064675l20.18656 -5.405835a2.4705850000000003 2.4705850000000003 0 0 0 1.73926 -3.0248Z" stroke-width="1"></path><path id="Vector_59" stroke="#005792" stroke-linecap="round" stroke-linejoin="round" d="m41.193 73.5305 -3.81881 0.34029000000000004a1.6915 1.6915 0 0 0 0.2985 3.364095l2.136265 -0.18905a1.6915 1.6915 0 0 1 0.2985 3.36509l-3.817815 0.359195" stroke-width="1"></path><path id="Vector_60" stroke="#005792" stroke-linecap="round" stroke-linejoin="round" d="m38.316455 72.51361 0.850725 9.26146" stroke-width="1"></path><path id="Vector_61" stroke="#005792" stroke-linecap="round" stroke-linejoin="round" d="m76.25182500000001 96.782655 -4.064575 -2.3243199999999997a2.07756 2.07756 0 0 0 -2.05965 3.6098600000000003l2.267605 1.3044449999999999a2.07557 2.07557 0 0 1 0.775105 2.8347550000000004 2.07756 2.07756 0 0 1 -2.8347550000000004 0.775105l-4.0794999999999995 -2.3243199999999997" stroke-width="1"></path><path id="Vector_62" stroke="#005792" stroke-linecap="round" stroke-linejoin="round" d="m74.07775000000001 93.75885000000001 -5.632695 9.90423" stroke-width="1"></path><path id="Vector_63" stroke="#005792" stroke-linecap="round" stroke-linejoin="round" d="M75.268765 157.03985500000002a2.466605 2.466605 0 0 0 2.05965 -4.4775l-12.587745 -5.72722a2.464615 2.464615 0 0 0 -2.060645 4.4775l12.58874 5.72722Z" stroke-width="1"></path><path id="Vector_64" stroke="#005792" stroke-linecap="round" stroke-linejoin="round" d="M103.37453000000001 142.05117499999997a3.69543 3.69543 0 0 1 -2.11537 3.5242899999999997 3.7014 3.7014 0 0 1 -4.06557 -0.6049599999999999 3.6964249999999996 3.6964249999999996 0 0 1 -0.99699 -3.98796 3.7014 3.7014 0 0 1 5.969004999999999 -1.491505 3.68548 3.68548 0 0 1 1.208925 2.560135Z" stroke-width="1"></path><path id="Vector_65" stroke="#005792" stroke-linecap="round" stroke-linejoin="round" d="M113.373285 150.972345a3.6934400000000003 3.6934400000000003 0 0 1 -2.11537 3.5242899999999997 3.6934400000000003 3.6934400000000003 0 0 1 -4.06557 -0.6049599999999999 3.6984150000000002 3.6984150000000002 0 0 1 2.30641 -6.434665 3.6924449999999998 3.6924449999999998 0 0 1 3.87453 3.515335v0Z" stroke-width="1"></path><path id="Vector_66" stroke="#005792" stroke-linecap="round" stroke-linejoin="round" d="m96.627435 155.489645 16.084175 -17.747815" stroke-width="1"></path><path id="Vector_67" stroke="#005792" stroke-linecap="round" stroke-linejoin="round" d="m152.70663 53.34792 0.434815 9.0346" stroke-width="1"></path><path id="Vector_68" stroke="#005792" stroke-linecap="round" stroke-linejoin="round" d="m157.45078999999998 57.63836 -9.053505 0.45372" stroke-width="1"></path><path id="Vector_69" stroke="#005792" stroke-linecap="round" stroke-linejoin="round" d="M83.75512 30.11865c-1.342255 -1.73926 -0.619885 -4.822765 -1.8516949999999999 -6.2754650000000005 -1.5273249999999998 -1.7989600000000001 -1.74722 -1.386035 -4.4775 1.644735 -0.66267 0.735305 0.3781 2.1163649999999996 2.816845 0.11343a4.309345 4.309345 0 0 0 -1.6099100000000002 5.14415" stroke-width="1"></path><path id="Vector_70" stroke="#005792" stroke-linecap="round" stroke-linejoin="round" d="m71.82905 33.255885 2.494465 -2.381035" stroke-width="1"></path><path id="Vector_71" stroke="#005792" stroke-linecap="round" stroke-linejoin="round" d="M74.3265 30.874850000000002c1.18803 1.0945 2.587 -0.2985 1.5124 -1.43678 -0.796 -0.846745 -1.3989699999999998 -1.417875 -2.060645 -2.07955a1.107435 1.107435 0 0 0 -1.700455 1.417875c0.498495 0.576105 1.14624 1.08057 2.2487 2.098455Z" stroke-width="1"></path><path id="Vector_72" stroke="#005792" stroke-linecap="round" stroke-linejoin="round" d="M46.71326 124.972a25.12773 25.12773 0 0 0 -5.334194999999999 -12.120095 24.830225 24.830225 0 0 0 -3.0058949999999998 13.413594999999999 24.983455000000003 24.983455000000003 0 0 0 5.3869299999999996 12.645455 24.322775 24.322775 0 0 0 2.95316 -13.938955v0Z" stroke-width="1"></path><path id="Vector_73" stroke="#005792" stroke-linecap="round" stroke-linejoin="round" d="M73.58622 60.719875a15.938904999999998 15.938904999999998 0 0 1 6.10532 -9.86642" stroke-width="1"></path><path id="Vector_74" stroke="#005792" stroke-linecap="round" stroke-linejoin="round" d="M82.03576 40.198a17.188625 17.188625 0 0 1 5.801845 -8.392825" stroke-width="1"></path></g></g></svg>