<svg xmlns="http://www.w3.org/2000/svg" fill="none" viewBox="-0.5 -0.5 200 200" height="200" width="200"><g id="Business-Charts-pie-and-bars"><g id="color 2"><path id="Vector" fill="#0094f8" d="m175.44337499999997 55.79164 -1.3989699999999998 17.355785c-6.376955 0.128355 -12.756895 -0.0796 -19.112955 -0.623865l-11.873334999999999 14.726 -6.2197450000000005 -16.97669c-14.560830000000001 -0.10547 -27.310760000000002 -2.7044099999999998 -41.420854999999996 -6.277455a14.8255 14.8255 0 0 0 -2.098455 11.93005c11.19375 2.753165 20.169645 4.975 31.665875 5.992884999999999l5.539165000000001 -1.66364c-0.6994849999999999 7.885375 -0.6049599999999999 15.820500000000001 0.28357499999999997 23.687965 7.543095 -0.7562 16.050345 0.24576499999999998 25.16355 2.3253150000000002 0.44775 -7.50031 0.995 -13.46434 2.968085 -20.209445 6.695355 0.584065 13.425535 0.67262 20.133824999999998 0.26467a7.783885000000001 7.783885000000001 0 0 0 7.051565 -7.164l1.720355 -22.3278a32.465855 32.465855 0 0 0 -12.40168 -1.039775Z" stroke-width="1"></path></g><g id="color 1"><path id="Vector_2" fill="#00395f" d="m146.06401 64.073025 -1.909405 1.81488 0.5482450000000001 -1.700455 1.3611600000000001 -0.114425Z" stroke-width="1"></path><path id="Vector_3" fill="#00395f" d="M124.984935 81.90044c1.71538 0.150245 3.52628 0.275615 5.373 0.369145 0.05373 -0.679585 0.116415 -1.354195 0.166165 -2.032785l-5.539165000000001 1.66364Z" stroke-width="1"></path><path id="Vector_4" fill="#00395f" d="M96.438385 73.298665a0.751225 0.751225 0 1 0 -1.15221 0.964155 0.751225 0.751225 0 0 0 1.15221 -0.964155Z" stroke-width="1"></path><path id="Vector_5" fill="#00395f" d="M114.34142 70.25496a0.75023 0.75023 0 1 0 -1.15221 0.9621649999999999 0.75023 0.75023 0 0 0 1.15221 -0.9621649999999999Z" stroke-width="1"></path><path id="Vector_6" fill="#00395f" d="M128.554 79.007975a0.743265 0.743265 0 0 0 -0.50944 -0.26666 0.747245 0.747245 0 0 0 -0.5492400000000001 0.17213499999999998 0.7333149999999999 0.7333149999999999 0 0 0 -0.23879999999999998 0.8019700000000001c0.029849999999999998 0.094525 0.0796 0.182085 0.144275 0.25671a0.757195 0.757195 0 0 0 0.800975 0.23481999999999997 0.74824 0.74824 0 0 0 0.492525 -0.9412699999999999 0.73431 0.73431 0 0 0 -0.14029499999999998 -0.257705Z" stroke-width="1"></path><path id="Vector_7" fill="#00395f" d="M160.71638 82.77007a0.749235 0.749235 0 0 0 1.3243449999999999 -0.414915 0.7562 0.7562 0 0 0 -0.828835 -0.8139099999999999 0.75222 0.75222 0 0 0 -0.49551 1.228825Z" stroke-width="1"></path><path id="Vector_8" fill="#00395f" d="M183.13771 77.193095a0.749235 0.749235 0 0 0 1.3243449999999999 -0.414915 0.7562 0.7562 0 0 0 -0.828835 -0.8139099999999999 0.75222 0.75222 0 0 0 -0.49551 1.228825Z" stroke-width="1"></path><path id="Vector_9" fill="#00395f" d="M141.05418500000002 87.47741500000001a0.741275 0.741275 0 0 0 -0.50944 -0.26666 0.751225 0.751225 0 0 0 -0.5482450000000001 0.17213499999999998 0.7333149999999999 0.7333149999999999 0 0 0 -0.27263000000000004 0.50944 0.73033 0.73033 0 0 0 0.17810499999999999 0.5492400000000001 0.74824 0.74824 0 0 0 1.0626600000000002 0.0995 0.757195 0.757195 0 0 0 0.23283 -0.80595 0.7363 0.7363 0 0 0 -0.14328 -0.257705Z" stroke-width="1"></path><path id="Vector_10" fill="#00395f" d="M145.09985500000002 88.989815a0.749235 0.749235 0 0 0 1.3243449999999999 -0.414915 0.7562 0.7562 0 0 0 -0.828835 -0.8139099999999999 0.75222 0.75222 0 0 0 -0.49551 1.228825Z" stroke-width="1"></path><path id="Vector_11" fill="#00395f" d="M152.1355 101.63726a0.753215 0.753215 0 0 0 1.161165 -0.010945 0.74625 0.74625 0 0 0 0.074625 -0.8308249999999999 0.75222 0.75222 0 1 0 -1.23579 0.84177Z" stroke-width="1"></path><path id="Vector_12" fill="#00395f" d="M132.8325 99.803475a0.75819 0.75819 0 0 0 0.800975 0.23481999999999997 0.75023 0.75023 0 0 0 0.12338 -1.38305 0.749235 0.749235 0 0 0 -1.0964900000000002 0.59899 0.75819 0.75819 0 0 0 0.17213499999999998 0.5492400000000001Z" stroke-width="1"></path><path id="Vector_13" fill="#00395f" d="M153.5285 58.419435c-0.71839 -3.590955 -1.3611600000000001 -7.316235 -4.1591 -9.679359999999999 -1.79697 1.4925 -5.01082 4.329245 -6.446605 8.016715 3.8367199999999997 -6.579935000000001 6.0117899999999995 -1.3999650000000001 5.632695 1.41688 -0.01791 0.51143 0.26566500000000004 0.6427700000000001 1.0945 0.114425 1.740255 -1.1342999999999999 2.798935 1.813885 -0.434815 3.0248 -0.414915 0.15123999999999999 -1.3790699999999998 2.30641 -1.133305 4.764060000000001 -0.35322499999999996 -3.403895 5.44663 -7.65752 5.44663 -7.65752Z" stroke-width="1"></path><path id="Vector_14" fill="#00395f" d="M178.07117 58.514955a0.749235 0.749235 0 0 0 -1.3243449999999999 0.414915 0.7562 0.7562 0 0 0 0.828835 0.8139099999999999 0.75222 0.75222 0 0 0 0.49551 -1.228825Z" stroke-width="1"></path><path id="Vector_15" fill="#00395f" d="M64.186455 132.92503499999998c-3.28947 2.53327 -9.20773 6.920225 -11.286285 9.154 2.627795 0.58705 10.832565 -1.2855400000000001 15.558815000000001 -1.2855400000000001 1.5124 0.00199 3.01883 -0.20198500000000003 4.4775 -0.6049599999999999 0.90744 -1.001965 1.909405 -2.2487 2.94918 -3.4029a34.42501 34.42501 0 0 1 -11.699209999999999 -3.8606Z" stroke-width="1"></path><path id="Vector_16" fill="#00395f" d="M103.735715 175.027465c-1.02087 4.026764999999999 -2.968085 11.135045 -3.232755 14.159845 2.4198399999999998 -1.153205 7.733140000000001 -7.712245 11.4425 -10.62461a17.377675 17.377675 0 0 0 3.1571350000000002 -3.232755c0.094525 -1.342255 0.11343 -2.94918 0.22686 -4.49939a35.12947 35.12947 0 0 1 -11.593739999999999 4.19691Z" stroke-width="1"></path><path id="Vector_17" fill="#00395f" d="m151.47084 134.34291 2.985 25.484935a25.95159 25.95159 0 0 0 19.415435000000002 -12.497200000000001l-22.400435 -12.987735Z" stroke-width="1"></path><path id="Vector_18" fill="#00395f" d="m155.782175 85.75706 3.17604 0.30247999999999997 -0.850725 3.119325 -2.3253150000000002 -3.421805Z" stroke-width="1"></path><path id="Vector_19" fill="#00395f" d="M81.2915 70.85594a0.562175 0.562175 0 0 1 0.36815 -0.20695999999999998c-3.007885 -0.5572 -5.787915 -0.532325 -7.305289999999999 -0.995L41.839749999999995 67.62616999999999a0.25671 0.25671 0 0 0 -0.037809999999999996 0.51143L81.40095000000001 71.64c-0.2189 -0.355215 -0.27064 -0.580085 -0.10945 -0.78406Z" stroke-width="1"></path></g><g id="outlines"><path id="Vector_20" stroke="#005792" stroke-linecap="round" stroke-linejoin="round" d="m170.88727 73.16633 -19.9995 -44.881465A14.810575 14.810575 0 0 0 131.34 20.77958L30.61018 65.62323500000001A14.808584999999999 14.808584999999999 0 0 0 23.104895 85.172l33.48175 75.167275a14.8056 14.8056 0 0 0 19.54777 7.505285l28.50874 -12.685255" stroke-width="1"></path><path id="Vector_21" stroke="#005792" stroke-linecap="round" stroke-linejoin="round" d="m123.18896000000001 146.89583 53.67229 -23.895919999999997a14.8056 14.8056 0 0 0 7.505285 -19.54777l-7.561999999999999 -16.97669" stroke-width="1"></path><path id="Vector_22" stroke="#005792" stroke-linecap="round" stroke-linejoin="round" d="M75.62 121.0716 56.132925 77.306525a3.82876 3.82876 0 0 0 -5.067535 -1.9472150000000001l-8.6963 3.85662a3.827765 3.827765 0 0 0 -1.9472150000000001 5.06654l22.195465 49.8495" stroke-width="1"></path><path id="Vector_23" stroke="#005792" stroke-linecap="round" stroke-linejoin="round" d="m66.41724500000001 142.69892 2.779035 6.23865a3.82876 3.82876 0 0 0 5.06654 1.9472150000000001l8.6963 -3.8805a3.83274 3.83274 0 0 0 2.026815 -2.1283049999999997 3.829755 3.829755 0 0 0 -0.0796 -2.9382349999999997l-3.0248 -6.824705" stroke-width="1"></path><path id="Vector_24" stroke="#005792" stroke-linecap="round" stroke-linejoin="round" d="m92.10914 126.98886499999999 4.34815 9.79279a3.83075 3.83075 0 0 0 5.06654 1.9472150000000001l7.807765000000001 -3.459615" stroke-width="1"></path><path id="Vector_25" stroke="#005792" stroke-linecap="round" stroke-linejoin="round" d="m107.28985499999999 118.821905 4.99092 11.191759999999999" stroke-width="1"></path><path id="Vector_26" stroke="#005792" stroke-linecap="round" stroke-linejoin="round" d="m99.93581 102.31783999999999 -6.522225 -14.651375a3.8267700000000002 3.8267700000000002 0 0 0 -5.06654 -1.9472150000000001l-8.6963 3.85662a3.8267700000000002 3.8267700000000002 0 0 0 -1.9472150000000001 5.06654l8.01572 18.016465" stroke-width="1"></path><path id="Vector_27" stroke="#005792" stroke-linecap="round" stroke-linejoin="round" d="m130.2455 96.98663 -5.217779999999999 -11.741000000000001a3.831745 3.831745 0 0 0 -3.60588 -2.28054 3.83075 3.83075 0 0 0 -1.46066 0.33332500000000004l-8.6963 3.875525a3.817815 3.817815 0 0 0 -2.026815 2.1293 3.8207999999999998 3.8207999999999998 0 0 0 0.0796 2.93724l4.72625 10.6465" stroke-width="1"></path><path id="Vector_28" stroke="#005792" stroke-linecap="round" stroke-linejoin="round" d="m157.44581499999998 113.84989 7.316235 -3.270565a3.82279 3.82279 0 0 0 2.28054 -3.60588 3.8407 3.8407 0 0 0 -0.33332500000000004 -1.46066L158.603 87.288365" stroke-width="1"></path><path id="Vector_29" stroke="#005792" stroke-linecap="round" stroke-linejoin="round" d="m148.333605 64.24317 3.4029 7.63762" stroke-width="1"></path><path id="Vector_30" stroke="#005792" stroke-linecap="round" stroke-linejoin="round" d="m144.1357 54.8245 -6.20084 -13.95189a3.831745 3.831745 0 0 0 -3.6048850000000003 -2.28054 3.83075 3.83075 0 0 0 -1.4616550000000001 0.33332500000000004l-8.6963 3.875525a3.82876 3.82876 0 0 0 -1.9472150000000001 5.06654l9.887315 22.21437" stroke-width="1"></path><path id="Vector_31" stroke="#005792" stroke-linecap="round" stroke-linejoin="round" d="M144.70285 64.18745c0.456705 0.00199 0.9124150000000001 -0.034825 1.36315 -0.10945l-1.909405 1.81488" stroke-width="1"></path><path id="Vector_32" stroke="#005792" stroke-linecap="round" stroke-linejoin="round" d="m158.078635 89.23956 -2.2964599999999997 -3.4825 3.1571350000000002 0.313425" stroke-width="1"></path><path id="Vector_33" stroke="#005792" stroke-linecap="round" stroke-linejoin="round" d="M82.86459500000001 68.058a69.93855 69.93855 0 0 0 -7.37295 -0.11343c-2.5531699999999997 0.166165 -3.6685649999999996 1.6099100000000002 0.90744 2.07955 3.346185 0.34228 6.84361 0.52934 9.90622 2.136265" stroke-width="1"></path><path id="Vector_34" stroke="#005792" stroke-linecap="round" stroke-linejoin="round" d="M80.671615 66.32272c0.32138500000000003 -1.4925 1.32335 -1.99 4.385960000000001 -1.70145" stroke-width="1"></path><path id="Vector_35" stroke="#005792" stroke-linecap="round" stroke-linejoin="round" d="M79.461695 67.891835c0.434815 -1.592 1.32335 -1.909405 4.23472 -1.644735" stroke-width="1"></path><path id="Vector_36" stroke="#005792" stroke-linecap="round" stroke-linejoin="round" d="M81.957155 64.7347c0.434815 -1.5124 1.43678 -1.7850300000000001 4.34815 -1.592 2.9253 0.34029000000000004 5.82871 0.84575 8.6963 1.5124" stroke-width="1"></path><path id="Vector_37" stroke="#005792" stroke-linecap="round" stroke-linejoin="round" d="M95.0225 64.65907999999999a14.812565000000001 14.812565000000001 0 0 0 -1.96811 9.86642A15.064300000000001 15.064300000000001 0 0 1 85.57 74.206105c-3.0845000000000002 -0.796 -5.61578 -3.734235 -3.4825 -3.4825 0.86764 0.16517 1.72135 0.398 2.552175 0.6965" stroke-width="1"></path><path id="Vector_38" stroke="#005792" stroke-linecap="round" stroke-linejoin="round" d="M148.10575 66.05805c-0.37013999999999997 -3.35514 5.200865 -7.509265 5.419765 -7.67145 -0.715405 -3.582 -1.36315 -7.2903649999999995 -4.152135 -9.646525a25.93368 25.93368 0 0 0 -6.446605 8.016715" stroke-width="1"></path><path id="Vector_39" stroke="#005792" stroke-linecap="round" stroke-linejoin="round" d="M104.58644 118.519425a89.284335 89.284335 0 0 1 17.375685 3.383 113.353385 113.353385 0 0 0 -7.63961 6.0167649999999995 16.93689 16.93689 0 0 0 -5.198874999999999 8.053529999999999 201.03378 201.03378 0 0 0 -6.16303 29.965419999999998 53.77975 53.77975 0 0 0 15.936914999999999 2.930275 141.6482 141.6482 0 0 1 6.192880000000001 -28.089845l24.131735 -11.460410000000001c12.96883 -6.766 6.749085 -23.045195 6.749085 -23.045195 0.510435 -8.488345 1.2099199999999999 -14.470284999999999 2.968085 -20.1985a135.64835000000002 135.64835000000002 0 0 0 20.133824999999998 0.27263000000000004 7.783885000000001 7.783885000000001 0 0 0 7.051565 -7.164l1.7183650000000001 -22.3278a32.543465 32.543465 0 0 0 -12.418595 -1.077585L174.0255 73.109615c-22.59247 0.3781 -24.70983 -1.720355 -25.333695 -3.346185 -1.34325 -3.535235 -0.057710000000000004 -8.243575 0.5482450000000001 -8.46944 3.2317600000000004 -1.21191 2.17109 -4.1640749999999995 0.434815 -3.025795 -0.64874 0.42586 -1.17211 0.582075 -1.085545 -0.18706 0.319395 -2.8347550000000004 -1.84871 -7.83264 -5.645630000000001 -1.32534 -3.84269 6.566999999999999 -0.365165 7.43265 1.758165 7.431655 0 0 -0.870625 2.49347 -1.3611600000000001 4.66854 -0.34029000000000004 1.5114049999999999 -2.07955 1.4417550000000001 -5.595879999999999 1.417875 -15.92 -0.10945 -26.99634 -2.514365 -42.3472 -6.295365a14.98868 14.98868 0 0 0 -2.09945 11.929055c13.917065000000001 3.431755 23.307875 5.6715 37.058775 6.36203a119.872625 119.872625 0 0 0 0.71441 23.77254 193.48571 193.48571 0 0 0 -26.939625 -4.291435 9.759955 9.759955 0 0 0 -6.65456 1.871595A353.10361 353.10361 0 0 0 69.83905 126.17595a42.4666 42.4666 0 0 0 9.62165 10.9649 194.87075 194.87075 0 0 1 25.12574 -18.621425v0Z" stroke-width="1"></path><path id="Vector_40" stroke="#005792" stroke-linecap="round" stroke-linejoin="round" d="M136.08217 113.16931a118.49455 118.49455 0 0 0 -14.120045000000001 8.729135" stroke-width="1"></path><path id="Vector_41" stroke="#005792" stroke-linecap="round" stroke-linejoin="round" d="M155.99013 106.26599999999999c-9.113205 -2.07955 -17.620455 -3.0845000000000002 -25.16355 -2.3253150000000002" stroke-width="1"></path><path id="Vector_42" stroke="#005792" stroke-linecap="round" stroke-linejoin="round" d="m136.819465 70.273865 6.2197450000000005 16.93888 11.873334999999999 -14.70809" stroke-width="1"></path><path id="Vector_43" stroke="#005792" stroke-linecap="round" stroke-linejoin="round" d="M142.73673 69.80124a5.515285 5.515285 0 0 0 6.201835 0.47262499999999996" stroke-width="1"></path><path id="Vector_44" stroke="#005792" stroke-linecap="round" stroke-linejoin="round" d="m139.06916 70.29277 2.15517 5.52026 4.4426749999999995 -4.820774999999999 3.2715599999999996 5.2934 3.51633 -4.23472" stroke-width="1"></path><path id="Vector_45" stroke="#005792" stroke-linecap="round" stroke-linejoin="round" d="M145.668 70.992255c-1.3044449999999999 5.02873 -4.1591 25.18146 -3.8805 32.951415" stroke-width="1"></path><path id="Vector_46" stroke="#005792" stroke-linecap="round" stroke-linejoin="round" d="M150.643 105.15359000000001s-1.1342999999999999 8.258500000000002 5.33121 10.85147" stroke-width="1"></path><path id="Vector_47" stroke="#005792" stroke-linecap="round" stroke-linejoin="round" d="M154.17524999999998 115.02199999999999a218.41842 218.41842 0 0 0 -30.247999999999998 18.054275 17.08415 17.08415 0 0 0 -6.408795 9.074399999999999 189.564415 189.564415 0 0 0 -5.40683 26.089895" stroke-width="1"></path><path id="Vector_48" stroke="#005792" stroke-linecap="round" stroke-linejoin="round" d="M128.31221499999998 117.649795a177.437355 177.437355 0 0 0 -21.570604999999997 -4.68844 9.815675 9.815675 0 0 0 -6.91923 1.55021 238.65871 238.65871 0 0 0 -24.5765 18.71595" stroke-width="1"></path><path id="Vector_49" stroke="#005792" stroke-linecap="round" stroke-linejoin="round" d="M77.382145 135.307065a40.84475 40.84475 0 0 1 -6.673465 -7.769955c-1.5124 1.47459 -4.00786 3.459615 -6.522225 5.40683a35.22101 35.22101 0 0 0 11.702195 3.8805c0.46367 -0.5382950000000001 0.96316 -1.04475 1.4934949999999998 -1.517375v0Z" stroke-width="1"></path><path id="Vector_50" stroke="#005792" stroke-linecap="round" stroke-linejoin="round" d="M52.900169999999996 142.075055c-0.54725 0.6049599999999999 -0.838785 1.0427600000000001 -0.73829 1.2855400000000001 0.62486 1.51041 9.604735 -0.71839 14.4076 -0.71839a13.86035 13.86035 0 0 0 4.1591 -0.6049599999999999 7.039625 7.039625 0 0 0 2.189 -1.8526900000000002c-1.45867 0.40397000000000005 -2.9651 0.60695 -4.4775 0.6049599999999999 -4.7063500000000005 0.0029850000000000002 -12.93102 1.893485 -15.53991 1.2855400000000001Z" stroke-width="1"></path><path id="Vector_51" stroke="#005792" stroke-linecap="round" stroke-linejoin="round" d="M64.186455 132.92503499999998c-3.28947 2.53327 -9.206735 6.91923 -11.286285 9.154 2.627795 0.586055 10.832565 -1.2855400000000001 15.558815000000001 -1.2855400000000001 1.5124 0.000995 3.01883 -0.20198500000000003 4.4775 -0.6049599999999999 0.90744 -1.001965 1.909405 -2.249695 2.94918 -3.4029a34.42501 34.42501 0 0 1 -11.699209999999999 -3.8606v0Z" stroke-width="1"></path><path id="Vector_52" stroke="#005792" stroke-linecap="round" stroke-linejoin="round" d="M115.570245 168.675385a52.75291 52.75291 0 0 1 -10.038555 -1.909405c-0.28357499999999997 2.07955 -1.02087 5.17997 -1.791 8.258500000000002a35.156335 35.156335 0 0 0 11.588765 -4.19691c0.051739999999999994 -0.715405 0.12736 -1.49051 0.24079 -2.152185Z" stroke-width="1"></path><path id="Vector_53" stroke="#005792" stroke-linecap="round" stroke-linejoin="round" d="M100.50296 189.18731c-0.07561999999999999 0.8129149999999999 -0.01791 1.340265 0.207955 1.4556850000000001 1.4616550000000001 0.745255 7.10032 -6.514265 10.889280000000001 -9.471405a13.83647 13.83647 0 0 0 2.892465 -3.043705 6.965995 6.965995 0 0 0 0.586055 -2.816845 16.782665 16.782665 0 0 1 -3.1571350000000002 3.232755c-3.7083649999999997 2.902415 -8.979875 9.490310000000001 -11.41862 10.643514999999999Z" stroke-width="1"></path><path id="Vector_54" stroke="#005792" stroke-linecap="round" stroke-linejoin="round" d="M103.735715 175.027465c-1.02087 4.026764999999999 -2.968085 11.135045 -3.232755 14.159845 2.4198399999999998 -1.153205 7.733140000000001 -7.712245 11.4425 -10.62461a17.377675 17.377675 0 0 0 3.1571350000000002 -3.232755c0.094525 -1.342255 0.11343 -2.94918 0.22686 -4.49939a35.12947 35.12947 0 0 1 -11.593739999999999 4.19691v0Z" stroke-width="1"></path><path id="Vector_55" stroke="#005792" stroke-linecap="round" stroke-linejoin="round" d="M18.303024999999998 109.066925 9.077385 88.04456499999999" stroke-width="1"></path><path id="Vector_56" stroke="#005792" stroke-linecap="round" stroke-linejoin="round" d="m4.975 98.593555 4.102385 -10.54899 10.54899 4.12129" stroke-width="1"></path><path id="Vector_57" stroke="#005792" stroke-linecap="round" stroke-linejoin="round" d="M185.44412 148.502755a2.48949 2.48949 0 0 1 -1.74921 3.42678 2.48949 2.48949 0 0 1 -2.621825 -3.77702 2.4805349999999997 2.4805349999999997 0 0 1 2.999925 -0.964155c0.6119249999999999 0.24079 1.1044500000000002 0.7124199999999999 1.3711099999999998 1.314395v0Z" stroke-width="1"></path><path id="Vector_58" stroke="#005792" stroke-linecap="round" stroke-linejoin="round" d="M193.819035 151.7375a2.48949 2.48949 0 0 1 -1.74921 3.42678 2.48949 2.48949 0 0 1 -2.621825 -3.77702 2.4805349999999997 2.4805349999999997 0 0 1 1.10047 -0.9352999999999999 2.5014299999999996 2.5014299999999996 0 0 1 3.270565 1.2855400000000001v0Z" stroke-width="1"></path><path id="Vector_59" stroke="#005792" stroke-linecap="round" stroke-linejoin="round" d="m184.38544000000002 158.52339999999998 5.89836 -14.954849999999999" stroke-width="1"></path><path id="Vector_60" stroke="#005792" stroke-linecap="round" stroke-linejoin="round" d="M185.198355 56.207550000000005a32.50665 32.50665 0 0 1 0.71839 -6.408795 23.6412 23.6412 0 0 1 1.833785 -4.975c1.1741 -2.3243199999999997 1.01092 -2.711375 -1.115395 -0.83182a15.38867 15.38867 0 0 0 -2.2118849999999997 2.3820300000000003 45.1332 45.1332 0 0 0 -5.572 9.206735" stroke-width="1"></path><path id="Vector_61" stroke="#005792" stroke-linecap="round" stroke-linejoin="round" d="M182.816325 48.588834999999996c-1.24773 1.47459 -1.73926 -2.3820300000000003 -2.4009349999999996 -4.026764999999999 -0.5482450000000001 -1.3611600000000001 -1.563145 -2.5710800000000003 -1.4925 1.4925a78.38112500000001 78.38112500000001 0 0 1 -0.86963 9.528120000000001" stroke-width="1"></path><path id="Vector_62" stroke="#005792" stroke-linecap="round" stroke-linejoin="round" d="M187.37242999999998 45.601845000000004a21.33877 21.33877 0 0 1 2.83575 -2.968085c2.032785 -1.666625 2.34621 -1.01888 2.11736 -0.661675 -0.8955 1.4049399999999999 -2.587 3.51633 -3.383 4.8396799999999995a60.230335000000004 60.230335000000004 0 0 0 -3.610855 7.127185" stroke-width="1"></path><path id="Vector_63" stroke="#005792" stroke-linecap="round" stroke-linejoin="round" d="M190.32161 44.78893c0.359195 -0.26467 0.41690499999999997 -0.2985 0.586055 -0.41591 2.193975 -1.503445 2.458645 -0.81192 2.189 -0.47262499999999996 -1.03679 1.326335 -2.77804 3.12032 -3.81881 4.291435a18.05726 18.05726 0 0 0 -3.32728 4.31034" stroke-width="1"></path><path id="Vector_64" stroke="#005792" stroke-linecap="round" stroke-linejoin="round" d="m63.165585 40.554210000000005 -8.50725 14.329989999999999 -16.240389999999998 -3.7053800000000003" stroke-width="1"></path><path id="Vector_65" stroke="#005792" stroke-linecap="round" stroke-linejoin="round" d="M69.857955 48.040589999999995a16.669235 16.669235 0 0 0 -30.45695 13.55588" stroke-width="1"></path><path id="Vector_66" stroke="#005792" stroke-linecap="round" stroke-linejoin="round" d="m170.66041 43.389959999999995 1.8904999999999998 -4.87749 -4.858585 -1.833785 1.8904999999999998 -4.896395 -4.9153 -1.985025 1.8904999999999998 -4.87749 -5.009825 -1.9661199999999999" stroke-width="1"></path><path id="Vector_67" stroke="#005792" stroke-linecap="round" stroke-linejoin="round" d="m172.721055 35.166285 1.8904999999999998 -4.87749 -4.8396799999999995 -1.833785 1.8904999999999998 -4.896395 -4.9342049999999995 -1.985025 1.909405 -4.87749 -5.02873 -1.9472150000000001" stroke-width="1"></path><path id="Vector_68" stroke="#005792" stroke-linecap="round" stroke-linejoin="round" d="M175.12 123.778a25.35857 25.35857 0 0 1 2.30641 11.229569999999999 26.032185000000002 26.032185000000002 0 0 1 -20.941765 24.48297 26.0292 26.0292 0 0 1 -28.70376 -14.63247" stroke-width="1"></path><path id="Vector_69" stroke="#005792" stroke-linecap="round" stroke-linejoin="round" d="m173.87426 147.330645 -22.402425 -12.96883 2.9869899999999996 25.46603" stroke-width="1"></path><path id="Vector_70" stroke="#005792" stroke-linecap="round" stroke-linejoin="round" d="m151.471835 134.361815 -19.6811 16.693115000000002" stroke-width="1"></path><path id="Vector_71" stroke="#005792" stroke-linecap="round" stroke-linejoin="round" d="m95.85233000000001 8.30228 5.973979999999999 12.874305" stroke-width="1"></path><path id="Vector_72" stroke="#005792" stroke-linecap="round" stroke-linejoin="round" d="m105.28592499999999 11.742989999999999 -12.89321 5.992884999999999" stroke-width="1"></path><path id="Vector_73" stroke="#005792" stroke-linecap="round" stroke-linejoin="round" d="m43.23872 149.69377 -3.686475 5.162059999999999 -2.6268000000000002 -5.785925000000001 6.313275 0.623865Z" stroke-width="1"></path><path id="Vector_74" stroke="#005792" stroke-linecap="round" stroke-linejoin="round" d="m131.07234499999998 106.042125 1.58802 0.34029000000000004" stroke-width="1"></path></g></g></svg>